<svg aria-roledescription="er" viewBox="0 0 466.1875 298" style="max-width: 466.188px; background-color: white;" xmlns:xlink="http://www.w3.org/1999/xlink" xmlns="http://www.w3.org/2000/svg" width="100%" id="mermaid-0"><style>#mermaid-0{font-family:"trebuchet ms",verdana,arial,sans-serif;font-size:16px;fill:#000000;}#mermaid-0 .error-icon{fill:#552222;}#mermaid-0 .error-text{fill:#552222;stroke:#552222;}#mermaid-0 .edge-thickness-normal{stroke-width:2px;}#mermaid-0 .edge-thickness-thick{stroke-width:3.5px;}#mermaid-0 .edge-pattern-solid{stroke-dasharray:0;}#mermaid-0 .edge-pattern-dashed{stroke-dasharray:3;}#mermaid-0 .edge-pattern-dotted{stroke-dasharray:2;}#mermaid-0 .marker{fill:#000000;stroke:#000000;}#mermaid-0 .marker.cross{stroke:#000000;}#mermaid-0 svg{font-family:"trebuchet ms",verdana,arial,sans-serif;font-size:16px;}#mermaid-0 .entityBox{fill:#cde498;stroke:#13540c;}#mermaid-0 .attributeBoxOdd{fill:#ffffff;stroke:#13540c;}#mermaid-0 .attributeBoxEven{fill:#f2f2f2;stroke:#13540c;}#mermaid-0 .relationshipLabelBox{fill:hsl(78.1578947368, 58.4615384615%, 84.5098039216%);opacity:0.7;background-color:hsl(78.1578947368, 58.4615384615%, 84.5098039216%);}#mermaid-0 .relationshipLabelBox rect{opacity:0.5;}#mermaid-0 .relationshipLine{stroke:#000000;}#mermaid-0 .entityTitleText{text-anchor:middle;font-size:18px;fill:#000000;}#mermaid-0 :root{--mermaid-font-family:"trebuchet ms",verdana,arial,sans-serif;}</style><g/><defs><marker orient="auto" markerHeight="18" markerWidth="18" refY="9" refX="0" id="ONLY_ONE_START"><path d="M9,0 L9,18 M15,0 L15,18" fill="none" stroke="gray"/></marker></defs><defs><marker orient="auto" markerHeight="18" markerWidth="18" refY="9" refX="18" id="ONLY_ONE_END"><path d="M3,0 L3,18 M9,0 L9,18" fill="none" stroke="gray"/></marker></defs><defs><marker orient="auto" markerHeight="18" markerWidth="30" refY="9" refX="0" id="ZERO_OR_ONE_START"><circle r="6" cy="9" cx="21" fill="white" stroke="gray"/><path d="M9,0 L9,18" fill="none" stroke="gray"/></marker></defs><defs><marker orient="auto" markerHeight="18" markerWidth="30" refY="9" refX="30" id="ZERO_OR_ONE_END"><circle r="6" cy="9" cx="9" fill="white" stroke="gray"/><path d="M21,0 L21,18" fill="none" stroke="gray"/></marker></defs><defs><marker orient="auto" markerHeight="36" markerWidth="45" refY="18" refX="18" id="ONE_OR_MORE_START"><path d="M0,18 Q 18,0 36,18 Q 18,36 0,18 M42,9 L42,27" fill="none" stroke="gray"/></marker></defs><defs><marker orient="auto" markerHeight="36" markerWidth="45" refY="18" refX="27" id="ONE_OR_MORE_END"><path d="M3,9 L3,27 M9,18 Q27,0 45,18 Q27,36 9,18" fill="none" stroke="gray"/></marker></defs><defs><marker orient="auto" markerHeight="36" markerWidth="57" refY="18" refX="18" id="ZERO_OR_MORE_START"><circle r="6" cy="18" cx="48" fill="white" stroke="gray"/><path d="M0,18 Q18,0 36,18 Q18,36 0,18" fill="none" stroke="gray"/></marker></defs><defs><marker orient="auto" markerHeight="36" markerWidth="57" refY="18" refX="39" id="ZERO_OR_MORE_END"><circle r="6" cy="18" cx="9" fill="white" stroke="gray"/><path d="M21,18 Q39,0 57,18 Q39,36 21,18" fill="none" stroke="gray"/></marker></defs><path style="stroke: gray; fill: none;" marker-start="url(#ZERO_OR_MORE_START)" marker-end="url(#ONLY_ONE_END)" d="M109.25093005952381,77L103.1993427579365,87.16666666666667C97.1477554563492,97.33333333333333,85.0445808531746,117.66666666666667,78.9929935515873,138C72.94140625,158.33333333333334,72.94140625,178.66666666666666,72.94140625,188.83333333333334L72.94140625,199" class="er relationshipLine"/><path style="stroke: gray; fill: none;" marker-start="url(#ZERO_OR_MORE_START)" marker-end="url(#ONLY_ONE_END)" d="M153.13532366071428,77L166.4819103422619,87.16666666666667C179.82849702380952,97.33333333333333,206.52167038690473,117.66666666666667,229.01950432722433,136.16666666666666C251.51733826754386,154.66666666666666,269.8198327850877,171.33333333333334,278.9710800438597,179.66666666666666L288.12232730263156,188" class="er relationshipLine"/><path style="stroke: gray; fill: none;" marker-start="url(#ZERO_OR_MORE_START)" marker-end="url(#ONLY_ONE_END)" d="M387.5390625,88L387.5390625,96.33333333333333C387.5390625,104.66666666666667,387.5390625,121.33333333333333,383.1530975877193,138C378.76713267543863,154.66666666666666,369.9952028508772,171.33333333333334,365.60923793859644,179.66666666666666L361.2232730263158,188" class="er relationshipLine"/><g transform="translate(269.93359375,188 )" id="entity-habits-c665679e-3315-41c8-9936-c23f7f34f581"><rect height="90" width="135.2109375" y="0" x="0" class="er entityBox"/><text style="dominant-baseline: middle; text-anchor: middle; font-size: 12px;" transform="translate(67.60546875,12)" y="0" x="0" id="text-entity-habits-c665679e-3315-41c8-9936-c23f7f34f581" class="er entityLabel">habits</text><rect height="22" width="53.6640625" y="24" x="0" class="er attributeBoxOdd"/><text style="dominant-baseline: middle; font-size: 10.2px;" transform="translate(5,35)" y="0" x="0" id="text-entity-habits-c665679e-3315-41c8-9936-c23f7f34f581-attr-1-type" class="er entityLabel">String</text><rect height="22" width="59.984375" y="24" x="53.6640625" class="er attributeBoxOdd"/><text style="dominant-baseline: middle; font-size: 10.2px;" transform="translate(58.6640625,35)" y="0" x="0" id="text-entity-habits-c665679e-3315-41c8-9936-c23f7f34f581-attr-1-name" class="er entityLabel">id</text><rect height="22" width="21.5625" y="24" x="113.6484375" class="er attributeBoxOdd"/><text style="dominant-baseline: middle; font-size: 10.2px;" transform="translate(118.6484375,35)" y="0" x="0" id="text-entity-habits-c665679e-3315-41c8-9936-c23f7f34f581-attr-1-key" class="er entityLabel">PK</text><rect height="22" width="53.6640625" y="46" x="0" class="er attributeBoxEven"/><text style="dominant-baseline: middle; font-size: 10.2px;" transform="translate(5,57)" y="0" x="0" id="text-entity-habits-c665679e-3315-41c8-9936-c23f7f34f581-attr-2-type" class="er entityLabel">String</text><rect height="22" width="59.984375" y="46" x="53.6640625" class="er attributeBoxEven"/><text style="dominant-baseline: middle; font-size: 10.2px;" transform="translate(58.6640625,57)" y="0" x="0" id="text-entity-habits-c665679e-3315-41c8-9936-c23f7f34f581-attr-2-name" class="er entityLabel">title</text><rect height="22" width="21.5625" y="46" x="113.6484375" class="er attributeBoxEven"/><text style="dominant-baseline: middle; font-size: 10.2px;" transform="translate(118.6484375,57)" y="0" x="0" id="text-entity-habits-c665679e-3315-41c8-9936-c23f7f34f581-attr-2-key" class="er entityLabel"/><rect height="22" width="53.6640625" y="68" x="0" class="er attributeBoxOdd"/><text style="dominant-baseline: middle; font-size: 10.2px;" transform="translate(5,79)" y="0" x="0" id="text-entity-habits-c665679e-3315-41c8-9936-c23f7f34f581-attr-3-type" class="er entityLabel">DateTime</text><rect height="22" width="59.984375" y="68" x="53.6640625" class="er attributeBoxOdd"/><text style="dominant-baseline: middle; font-size: 10.2px;" transform="translate(58.6640625,79)" y="0" x="0" id="text-entity-habits-c665679e-3315-41c8-9936-c23f7f34f581-attr-3-name" class="er entityLabel">created_at</text><rect height="22" width="21.5625" y="68" x="113.6484375" class="er attributeBoxOdd"/><text style="dominant-baseline: middle; font-size: 10.2px;" transform="translate(118.6484375,79)" y="0" x="0" id="text-entity-habits-c665679e-3315-41c8-9936-c23f7f34f581-attr-3-key" class="er entityLabel"/></g><g transform="translate(20,199 )" id="entity-days-48b0a9b5-0cb0-4dd1-929a-222f76598569"><rect height="68" width="105.8828125" y="0" x="0" class="er entityBox"/><text style="dominant-baseline: middle; text-anchor: middle; font-size: 12px;" transform="translate(52.94140625,12)" y="0" x="0" id="text-entity-days-48b0a9b5-0cb0-4dd1-929a-222f76598569" class="er entityLabel">days</text><rect height="22" width="53.6640625" y="24" x="0" class="er attributeBoxOdd"/><text style="dominant-baseline: middle; font-size: 10.2px;" transform="translate(5,35)" y="0" x="0" id="text-entity-days-48b0a9b5-0cb0-4dd1-929a-222f76598569-attr-1-type" class="er entityLabel">String</text><rect height="22" width="30.65625" y="24" x="53.6640625" class="er attributeBoxOdd"/><text style="dominant-baseline: middle; font-size: 10.2px;" transform="translate(58.6640625,35)" y="0" x="0" id="text-entity-days-48b0a9b5-0cb0-4dd1-929a-222f76598569-attr-1-name" class="er entityLabel">id</text><rect height="22" width="21.5625" y="24" x="84.3203125" class="er attributeBoxOdd"/><text style="dominant-baseline: middle; font-size: 10.2px;" transform="translate(89.3203125,35)" y="0" x="0" id="text-entity-days-48b0a9b5-0cb0-4dd1-929a-222f76598569-attr-1-key" class="er entityLabel">PK</text><rect height="22" width="53.6640625" y="46" x="0" class="er attributeBoxEven"/><text style="dominant-baseline: middle; font-size: 10.2px;" transform="translate(5,57)" y="0" x="0" id="text-entity-days-48b0a9b5-0cb0-4dd1-929a-222f76598569-attr-2-type" class="er entityLabel">DateTime</text><rect height="22" width="30.65625" y="46" x="53.6640625" class="er attributeBoxEven"/><text style="dominant-baseline: middle; font-size: 10.2px;" transform="translate(58.6640625,57)" y="0" x="0" id="text-entity-days-48b0a9b5-0cb0-4dd1-929a-222f76598569-attr-2-name" class="er entityLabel">date</text><rect height="22" width="21.5625" y="46" x="84.3203125" class="er attributeBoxEven"/><text style="dominant-baseline: middle; font-size: 10.2px;" transform="translate(89.3203125,57)" y="0" x="0" id="text-entity-days-48b0a9b5-0cb0-4dd1-929a-222f76598569-attr-2-key" class="er entityLabel"/></g><g transform="translate(72.94140625,31 )" id="entity-dayhabits-39dd6176-8986-4400-83c0-ebb33f50803c"><rect height="46" width="100" y="0" x="0" class="er entityBox"/><text style="dominant-baseline: middle; text-anchor: middle; font-size: 12px;" transform="translate(50,12)" y="0" x="0" id="text-entity-dayhabits-39dd6176-8986-4400-83c0-ebb33f50803c" class="er entityLabel">day_habits</text><rect height="22" width="44.296875" y="24" x="0" class="er attributeBoxOdd"/><text style="dominant-baseline: middle; font-size: 10.2px;" transform="translate(5,35)" y="0" x="0" id="text-entity-dayhabits-39dd6176-8986-4400-83c0-ebb33f50803c-attr-1-type" class="er entityLabel">String</text><rect height="22" width="26.3671875" y="24" x="44.296875" class="er attributeBoxOdd"/><text style="dominant-baseline: middle; font-size: 10.2px;" transform="translate(49.296875,35)" y="0" x="0" id="text-entity-dayhabits-39dd6176-8986-4400-83c0-ebb33f50803c-attr-1-name" class="er entityLabel">id</text><rect height="22" width="29.3359375" y="24" x="70.6640625" class="er attributeBoxOdd"/><text style="dominant-baseline: middle; font-size: 10.2px;" transform="translate(75.6640625,35)" y="0" x="0" id="text-entity-dayhabits-39dd6176-8986-4400-83c0-ebb33f50803c-attr-1-key" class="er entityLabel">PK</text></g><g transform="translate(328.890625,20 )" id="entity-habitweekday-d53da2a7-306c-4764-ac5d-96bceebb776b"><rect height="68" width="117.296875" y="0" x="0" class="er entityBox"/><text style="dominant-baseline: middle; text-anchor: middle; font-size: 12px;" transform="translate(58.6484375,12)" y="0" x="0" id="text-entity-habitweekday-d53da2a7-306c-4764-ac5d-96bceebb776b" class="er entityLabel">habit_week_day</text><rect height="22" width="37.830729166666664" y="24" x="0" class="er attributeBoxOdd"/><text style="dominant-baseline: middle; font-size: 10.2px;" transform="translate(5,35)" y="0" x="0" id="text-entity-habitweekday-d53da2a7-306c-4764-ac5d-96bceebb776b-attr-1-type" class="er entityLabel">String</text><rect height="22" width="56.596354166666664" y="24" x="37.830729166666664" class="er attributeBoxOdd"/><text style="dominant-baseline: middle; font-size: 10.2px;" transform="translate(42.830729166666664,35)" y="0" x="0" id="text-entity-habitweekday-d53da2a7-306c-4764-ac5d-96bceebb776b-attr-1-name" class="er entityLabel">id</text><rect height="22" width="22.869791666666668" y="24" x="94.42708333333333" class="er attributeBoxOdd"/><text style="dominant-baseline: middle; font-size: 10.2px;" transform="translate(99.42708333333333,35)" y="0" x="0" id="text-entity-habitweekday-d53da2a7-306c-4764-ac5d-96bceebb776b-attr-1-key" class="er entityLabel">PK</text><rect height="22" width="37.830729166666664" y="46" x="0" class="er attributeBoxEven"/><text style="dominant-baseline: middle; font-size: 10.2px;" transform="translate(5,57)" y="0" x="0" id="text-entity-habitweekday-d53da2a7-306c-4764-ac5d-96bceebb776b-attr-2-type" class="er entityLabel">Int</text><rect height="22" width="56.596354166666664" y="46" x="37.830729166666664" class="er attributeBoxEven"/><text style="dominant-baseline: middle; font-size: 10.2px;" transform="translate(42.830729166666664,57)" y="0" x="0" id="text-entity-habitweekday-d53da2a7-306c-4764-ac5d-96bceebb776b-attr-2-name" class="er entityLabel">week_day</text><rect height="22" width="22.869791666666668" y="46" x="94.42708333333333" class="er attributeBoxEven"/><text style="dominant-baseline: middle; font-size: 10.2px;" transform="translate(99.42708333333333,57)" y="0" x="0" id="text-entity-habitweekday-d53da2a7-306c-4764-ac5d-96bceebb776b-attr-2-key" class="er entityLabel"/></g><rect height="14" width="18.9140625" y="127.78831481933594" x="70.54106140136719" class="er relationshipLabelBox"/><text style="text-anchor: middle; dominant-baseline: middle; font-size: 12px;" y="134.78831481933594" x="79.99809265136719" id="rel1" class="er relationshipLabel">day</text><rect height="14" width="27.7265625" y="123.602294921875" x="208.33364868164062" class="er relationshipLabelBox"/><text style="text-anchor: middle; dominant-baseline: middle; font-size: 12px;" y="130.602294921875" x="222.19692993164062" id="rel2" class="er relationshipLabel">habit</text><rect height="14" width="27.7265625" y="133.108642578125" x="368.7117919921875" class="er relationshipLabelBox"/><text style="text-anchor: middle; dominant-baseline: middle; font-size: 12px;" y="140.108642578125" x="382.5750732421875" id="rel3" class="er relationshipLabel">habit</text></svg>